<svg xmlns="http://www.w3.org/2000/svg" viewBox="0 0 1465 1920" width="1465" height="1920" class="fig-root" role="img" aria-label="研究技术路线：阶段Ⅰ前瞻性观察队列完成多模态神经生理感知、疼痛神经解码模型开发验证与客观疼痛指数风险阈值确定，经模型锁定与SOP定稿后进入阶段Ⅱ随机对照试验，比较客观疼痛指数辅助的人机协同闭环管理与常规管理。">
<style>
svg.fig-root {
  --f-paper:#FFFFFF; --f-ink:#12212B; --f-muted:#48606D; --f-note:#5D707C;
  --f-hair:#DAE3E8; --f-band1:#F2F7F9; --f-band1-line:#DCE9EE;
  --f-band2:#F5F6FA; --f-band2-line:#E0E4EE;
  --f-a1:#1C6C86; --f-a2:#2C4C7C; --f-ctrl:#68747F; --f-gate:#9A6B1E;
  --f-gate-fill:#FCF6EA; --f-gate-line:#E3CB9C;
  --f-card-line:#D5DFE5; --f-card-line2:#B9C4DA; --f-card-line3:#DEE2E6;
  --f-node:#F4F9FB; --f-node-line:#CBDFE7; --f-loop-line:#8FBFCF;
  --f-conn:#48606D; --f-on-accent:#FFFFFF;
}

.fig-root { font-family: "Source Han Sans SC","Noto Sans SC","PingFang SC","Hiragino Sans GB","Microsoft YaHei","WenQuanYi Zen Hei",-apple-system,"Segoe UI",Arial,sans-serif; }
.band { stroke-width:2.2; }
.band-a1 { fill:var(--f-band1); stroke:var(--f-band1-line); }
.band-a2 { fill:var(--f-band2); stroke:var(--f-band2-line); }
.card { fill:var(--f-paper); stroke-width:2.4; }
.card-a1 { stroke:var(--f-card-line); }
.card-a2 { stroke:var(--f-card-line2); stroke-width:3; }
.card-ctrl { stroke:var(--f-card-line3); }
.card-ink { stroke:var(--f-card-line); }
.card-gate { fill:var(--f-gate-fill); stroke:var(--f-gate-line); stroke-width:3; }
.badge-a1 { fill:var(--f-a1); }
.badge-a2 { fill:var(--f-a2); }
.dot-a1 { fill:var(--f-a1); }
.dot-a2 { fill:var(--f-a2); }
.dot-ctrl { fill:var(--f-ctrl); }
.dot-ink { fill:var(--f-muted); }
.dot-gate { fill:var(--f-gate); }
.hair { stroke:var(--f-hair); stroke-width:2; }
.tab { stroke:none; }
.tab-a1 { fill:var(--f-a1); }
.tab-a2 { fill:var(--f-a2); }
.loop { fill:none; stroke:var(--f-loop-line); stroke-width:2.6; stroke-dasharray:11 9; }
.node { fill:var(--f-node); stroke:var(--f-node-line); stroke-width:2; }
.lbl-bg { fill:var(--f-band2); }
.junction { fill:var(--f-conn); }
.conn { stroke:var(--f-conn); stroke-width:3.4; stroke-linecap:round; }
.conn-a1, .conn-a2, .conn-gate { stroke:var(--f-conn); }
.conn-ctrl { stroke:var(--f-ctrl); }
.conn-fb { stroke:var(--f-loop-line); stroke-width:2.8; stroke-dasharray:11 9; }
.ah { fill:var(--f-conn); }
.ah-fb { fill:var(--f-loop-line); }

.t-title { font-size:33px; font-weight:700; fill:var(--f-ink); }
.t-sub { font-size:28px; fill:var(--f-muted); }
.t-badge { font-size:28px; font-weight:700; fill:var(--f-on-accent); }
.t-tab { font-size:32px; font-weight:700; fill:var(--f-on-accent); letter-spacing:.6px; }
.t-note { font-size:26px; fill:var(--f-note); }
.t-loop { font-size:30px; font-weight:700; fill:var(--f-ink); }
.t-node { font-size:28px; font-weight:700; fill:var(--f-ink); }
.t-fb { font-size:25px; fill:var(--f-note); }

</style>
<defs>
  <marker id="ah" viewBox="0 0 12 12" refX="11" refY="6" markerWidth="22" markerHeight="22"
          markerUnits="userSpaceOnUse" orient="auto">
    <path d="M0.5,1 L11,6 L0.5,11 L3.2,6 Z" class="ah"/>
  </marker>
  <marker id="ah-fb" viewBox="0 0 12 12" refX="11" refY="6" markerWidth="20" markerHeight="20"
          markerUnits="userSpaceOnUse" orient="auto">
    <path d="M0.5,1 L11,6 L0.5,11 L3.2,6 Z" class="ah-fb"/>
  </marker>
</defs>
<rect x="0" y="0" width="1465" height="1920" fill="var(--f-paper)"/>
<rect x="40" y="764" width="1385" height="1126" rx="26" class="band band-a2"/>
<rect x="40" y="214" width="1385" height="352" rx="26" class="band band-a1"/>
<rect x="70" y="183" width="410.4" height="62" rx="31" class="tab tab-a1"/>
<text x="104" y="225" class="t-tab">阶段Ⅰ · 前瞻性观察队列</text>
<text x="1395" y="223" class="t-note" text-anchor="end">第4–12个月 · 最多约120例</text>
<rect x="342.5" y="28" width="780" height="150" rx="16" class="card card-ink"/>
<text x="732.5" y="72" class="t-title" text-anchor="middle">术前筛选与知情同意</text>
<line x1="368.5" y1="103" x2="1096.5" y2="103" class="hair"/>
<text x="732.5" y="148" class="t-sub" text-anchor="middle">择期腹腔镜结直肠手术、术后静脉PCA、ASA I–III级</text>
<rect x="70" y="294" width="417.667" height="232" rx="16" class="card card-a1"/>
<text x="140" y="338" class="t-title">EEG为核心的</text>
<text x="140" y="382" class="t-title">多模态神经生理感知</text>
<line x1="96" y1="413" x2="461.667" y2="413" class="hair"/>
<rect x="96" y="440" width="9" height="9" class="dot dot-a1"/>
<text x="108" y="458" class="t-sub">EEG＋ECG/PPG＋呼吸信号</text>
<rect x="96" y="478" width="9" height="9" class="dot dot-a1"/>
<text x="108" y="496" class="t-sub">PACU至病房连续监测24 h</text>
<circle cx="104" cy="328" r="24" class="badge badge-a1"/>
<text x="104" y="338" class="t-badge" text-anchor="middle">1</text>
<rect x="523.667" y="294" width="417.667" height="232" rx="16" class="card card-a1"/>
<text x="593.667" y="338" class="t-title">术后疼痛神经解码</text>
<text x="593.667" y="382" class="t-title">模型开发与验证</text>
<line x1="549.667" y1="413" x2="915.333" y2="413" class="hair"/>
<rect x="549.667" y="440" width="9" height="9" class="dot dot-a1"/>
<text x="561.667" y="458" class="t-sub">EEG特征＋HRV／呼吸指标</text>
<rect x="549.667" y="478" width="9" height="9" class="dot dot-a1"/>
<text x="561.667" y="496" class="t-sub">患者级内部＋时间外验证</text>
<circle cx="557.667" cy="328" r="24" class="badge badge-a1"/>
<text x="557.667" y="338" class="t-badge" text-anchor="middle">2</text>
<rect x="977.333" y="294" width="417.667" height="232" rx="16" class="card card-a1"/>
<text x="1047.33" y="338" class="t-title">客观疼痛指数（OPI）</text>
<text x="1047.33" y="382" class="t-title">与风险阈值确定</text>
<line x1="1003.33" y1="413" x2="1369" y2="413" class="hair"/>
<rect x="1003.33" y="440" width="9" height="9" class="dot dot-a1"/>
<text x="1015.33" y="458" class="t-sub">连续输出0–100分指数</text>
<rect x="1003.33" y="478" width="9" height="9" class="dot dot-a1"/>
<text x="1015.33" y="496" class="t-sub">中重度活动痛风险提示</text>
<circle cx="1011.33" cy="328" r="24" class="badge badge-a1"/>
<text x="1011.33" y="338" class="t-badge" text-anchor="middle">3</text>
<path d="M493.667,410 L515.667,410" class="conn conn-a1" fill="none" marker-end="url(#ah)"/>
<path d="M947.333,410 L969.333,410" class="conn conn-a1" fill="none" marker-end="url(#ah)"/>
<path d="M732.5,178 L732.5,248 A22,22 0 0 1 710.5,270 L286.833,270 A8,8 0 0 0 278.833,278 L278.833,286" class="conn" fill="none" marker-end="url(#ah)"/>
<rect x="282.5" y="610" width="900" height="118" rx="16" class="card card-gate"/>
<text x="732.5" y="654" class="t-title" text-anchor="middle">里程碑：模型、风险阈值与SOP锁定</text>
<text x="732.5" y="698" class="t-sub" text-anchor="middle">阶段Ⅰ模型不参与临床决策；锁定参数、阈值、提示规则与软件版本</text>
<path d="M1186.17,526 L1186.17,570 A22,22 0 0 1 1164.17,592 L737.5,592 A5,5 0 0 0 732.5,597 L732.5,602" class="conn conn-gate" fill="none" marker-end="url(#ah)"/>
<path d="M732.5,728 L732.5,836" class="conn" fill="none" marker-end="url(#ah)"/>
<rect x="322.5" y="844" width="820" height="188" rx="16" class="card card-a2"/>
<text x="732.5" y="888" class="t-title" text-anchor="middle">随机分组（1:1）</text>
<line x1="348.5" y1="919" x2="1116.5" y2="919" class="hair"/>
<text x="732.5" y="964" class="t-sub" text-anchor="middle">变动区组随机、分配隐藏；结局评估与统计分析盲态</text>
<text x="732.5" y="1002" class="t-sub" text-anchor="middle">两组均接受标准多模式镇痛、静脉PCA与相同监测</text>
<rect x="70" y="1110" width="632.5" height="188" rx="16" class="card card-a2"/>
<text x="96" y="1154" class="t-title">客观疼痛指数（OPI）辅助组</text>
<line x1="96" y1="1185" x2="676.5" y2="1185" class="hair"/>
<rect x="96" y="1212" width="9" height="9" class="dot dot-a2"/>
<text x="108" y="1230" class="t-sub">约60例；开放锁定模型的指数与提示</text>
<rect x="96" y="1250" width="9" height="9" class="dot dot-a2"/>
<text x="108" y="1268" class="t-sub">达阈值触发人机协同闭环（见下）</text>
<rect x="762.5" y="1110" width="632.5" height="188" rx="16" class="card card-ctrl"/>
<text x="788.5" y="1154" class="t-title">常规管理组</text>
<line x1="788.5" y1="1185" x2="1369" y2="1185" class="hair"/>
<rect x="788.5" y="1212" width="9" height="9" class="dot dot-ctrl"/>
<text x="800.5" y="1230" class="t-sub">约60例；间断NRS评估与APS管理</text>
<rect x="788.5" y="1250" width="9" height="9" class="dot dot-ctrl"/>
<text x="800.5" y="1268" class="t-sub">不开放客观疼痛指数结果</text>
<path d="M732.5,1032 L732.5,1054 A22,22 0 0 1 710.5,1076 L399.25,1076 A13,13 0 0 0 386.25,1089 L386.25,1102" class="conn conn-a2" fill="none" marker-end="url(#ah)"/>
<path d="M732.5,1032 L732.5,1054 A22,22 0 0 0 754.5,1076 L1065.75,1076 A13,13 0 0 1 1078.75,1089 L1078.75,1102" class="conn conn-ctrl" fill="none" marker-end="url(#ah)"/>
<rect x="70" y="1340" width="632.5" height="240" rx="16" class="loop"/>
<text x="96" y="1392" class="t-loop">神经解码驱动的人机协同闭环</text>
<path d="M386.25,1298 L386.25,1332" class="conn conn-a1" fill="none" marker-end="url(#ah)"/>
<rect x="86" y="1424" width="135.125" height="78" rx="12" class="node"/>
<text x="153.562" y="1473" class="t-node" text-anchor="middle">风险提示</text>
<rect x="241.125" y="1424" width="135.125" height="78" rx="12" class="node"/>
<text x="308.688" y="1473" class="t-node" text-anchor="middle">限时复评</text>
<path d="M226.125,1463 L234.125,1463" class="conn conn-a1" fill="none" marker-end="url(#ah)"/>
<rect x="396.25" y="1424" width="135.125" height="78" rx="12" class="node"/>
<text x="463.812" y="1473" class="t-node" text-anchor="middle">镇痛处置</text>
<path d="M381.25,1463 L389.25,1463" class="conn conn-a1" fill="none" marker-end="url(#ah)"/>
<rect x="551.375" y="1424" width="135.125" height="78" rx="12" class="node"/>
<text x="618.938" y="1473" class="t-node" text-anchor="middle">效果评价</text>
<path d="M536.375,1463 L544.375,1463" class="conn conn-a1" fill="none" marker-end="url(#ah)"/>
<path d="M618.938,1502 L618.938,1530 A16,16 0 0 1 602.938,1546 L169.562,1546 A16,16 0 0 1 153.562,1530 L153.562,1510" class="conn conn-fb" fill="none" marker-end="url(#ah-fb)"/>
<rect x="298.25" y="1526" width="176" height="36" class="lbl-bg"/>
<text x="386.25" y="1555" class="t-fb" text-anchor="middle">记录与再评估</text>
<rect x="70" y="1662" width="632.5" height="188" rx="16" class="card card-a2"/>
<text x="96" y="1706" class="t-title">随访与结局评价（术后48 h）</text>
<line x1="96" y1="1737" x2="676.5" y2="1737" class="hair"/>
<rect x="96" y="1764" width="9" height="9" class="dot dot-a2"/>
<text x="108" y="1782" class="t-sub">主要终点：0–24 h活动痛NRS时间加权均值</text>
<rect x="96" y="1802" width="9" height="9" class="dot dot-a2"/>
<text x="108" y="1820" class="t-sub">次要：阿片用量、处置时效、不良事件</text>
<rect x="762.5" y="1662" width="632.5" height="188" rx="16" class="card card-a2"/>
<text x="788.5" y="1706" class="t-title">统计分析</text>
<line x1="788.5" y1="1737" x2="1369" y2="1737" class="hair"/>
<rect x="788.5" y="1764" width="9" height="9" class="dot dot-a2"/>
<text x="800.5" y="1782" class="t-sub">意向性分析为主，辅以符合方案集</text>
<rect x="788.5" y="1802" width="9" height="9" class="dot dot-a2"/>
<text x="800.5" y="1820" class="t-sub">ANCOVA／线性混合效应模型</text>
<path d="M386.25,1580 L386.25,1654" class="conn conn-a2" fill="none" marker-end="url(#ah)"/>
<path d="M1078.75,1298 L1078.75,1600 A22,22 0 0 1 1056.75,1622 L386.25,1622" class="conn conn-ctrl" fill="none"/>
<circle cx="386.25" cy="1622" r="8" class="junction"/>
<path d="M708.5,1756 L754.5,1756" class="conn conn-a2" fill="none" marker-end="url(#ah)"/>
<rect x="70" y="733" width="378.4" height="62" rx="31" class="tab tab-a2"/>
<text x="104" y="775" class="t-tab">阶段Ⅱ · 随机对照试验</text>
<text x="1395" y="773" class="t-note" text-anchor="end">第13–21个月 · 120例，1:1</text>
</svg>
